<svg xmlns="http://www.w3.org/2000/svg" width="120" height="150" viewBox="0 0 160 200"><g transform="rotate(-4 80 100)"><g transform="translate(80 78)"><path d="M2-66c28 3 38 38 36 73S26 64 2 70c-24-6-34-28-36-63s8-70 36-73z" fill="#e0d4b8"/><path d="M0-68c28 3 38 38 36 73S24 62 0 68c-24-6-34-28-36-63s8-70 36-73z" fill="#f5eed9"/><path d="M-8-55C8-52 16-25 14 0 12 20 6 35-4 42c-10-7-16-27-16-47 0-25 4-47 12-50z" fill="#faf6eb" opacity=".5"/><path d="M0-55Q3 0 0 55" fill="none" stroke="#e0d5be" stroke-width="1.2" stroke-linecap="round" opacity=".5"/></g><ellipse cx="68" cy="72" rx="4.5" ry="5.5" fill="#3d3529"/><ellipse cx="69.5" cy="70.5" rx="1.8" ry="2.2" fill="#fff"/><ellipse cx="92" cy="72" rx="4.5" ry="5.5" fill="#3d3529"/><ellipse cx="93.5" cy="70.5" rx="1.8" ry="2.2" fill="#fff"/><path d="M70 88q10 10 20 0" fill="none" stroke="#3d3529" stroke-linecap="round" stroke-width="2.2"/><ellipse cx="62" cy="86" rx="7" ry="4.5" fill="#f0b8a8" opacity=".45"/><ellipse cx="98" cy="86" rx="7" ry="4.5" fill="#f0b8a8" opacity=".45"/><g><path d="M48 95q-12-9-16-15" fill="none" stroke="#f5eed9" stroke-linecap="round" stroke-width="6"/><circle cx="31" cy="79" r="4" fill="#f5eed9"/><path d="M112 95q12-9 16-15" fill="none" stroke="#f5eed9" stroke-linecap="round" stroke-width="6"/><circle cx="129" cy="79" r="4" fill="#f5eed9"/></g><g><path d="M56 120q24 5 48 0v8q-24 5-48 0z" fill="#4a90d9"/><path d="M56 128q-1 14 4 22 10 2 20-2v-20q-12 3-24 0zm48 0q1 14-4 22-10 2-20-2v-20q12 3 24 0z" fill="#4a90d9"/><path stroke="#3a7bc8" stroke-width=".8" d="M80 125L80 148"/><path d="M56 124q24 5 48 0" fill="none" stroke="#3a7bc8" stroke-width=".8"/></g><g><path d="M66 150l-2 16" stroke="#f5eed9" stroke-linecap="round" stroke-width="7"/><ellipse cx="63" cy="169" rx="7" ry="3.5" fill="#e8dcc8"/><path d="M94 150l2 16" stroke="#f5eed9" stroke-linecap="round" stroke-width="7"/><ellipse cx="97" cy="169" rx="7" ry="3.5" fill="#e8dcc8"/></g></g></svg>