<svg xmlns="http://www.w3.org/2000/svg" width="320" height="160" viewBox="0 0 360 180"><g transform="translate(72 75)"><g transform="rotate(6)"><path d="M1.5-50c21 2 29 29 27 55S19.5 48 0 53c-18-5-26-21-27-48s6-53 27-55z" fill="#e0d4b8"/><path d="M0-52c21 2 29 29 27 55S18 44 0 49c-18-5-26-21-27-48s6-51 27-53z" fill="#f5eed9"/><path d="M-6-42C6-40 12-19 10.5 0 9 15 4.5 27-3 32c-7.5-5-12-20-12-36 0-19 3-36 9-38z" fill="#faf6eb" opacity=".5"/><path d="M0-42Q2 0 0 42" fill="none" stroke="#e0d5be" stroke-linecap="round" opacity=".5"/></g><ellipse cx="-7" cy="-7" rx="3.2" ry="4" fill="#3d3529"/><ellipse cx="-5.5" cy="-8.5" rx="1.3" ry="1.6" fill="#fff"/><ellipse cx="10" cy="-7" rx="3.2" ry="4" fill="#3d3529"/><ellipse cx="11.5" cy="-8.5" rx="1.3" ry="1.6" fill="#fff"/><path d="M-10.5-10l-2-3m18 3l2-3" stroke="#3d3529" stroke-linecap="round"/><path d="M-5 6q7.5 8 15 0" fill="none" stroke="#3d3529" stroke-linecap="round" stroke-width="1.8"/><ellipse cx="-12" cy="4" rx="5" ry="3.2" fill="#f0b8a8" opacity=".5"/><ellipse cx="15" cy="4" rx="5" ry="3.2" fill="#f0b8a8" opacity=".5"/><path d="M-22 12Q-32 4-36-2" fill="none" stroke="#f5eed9" stroke-linecap="round" stroke-width="4.5"/><circle cx="-37" cy="-3" r="3" fill="#f5eed9"/><path d="M22 12q8-2 12 4" fill="none" stroke="#f5eed9" stroke-linecap="round" stroke-width="4.5"/><circle cx="35" cy="17" r="3" fill="#f5eed9"/><path d="M-8 48l-1 10" stroke="#f5eed9" stroke-linecap="round" stroke-width="5.5"/><ellipse cx="-10" cy="60" rx="5.5" ry="2.8" fill="#e8dcc8"/><path d="M10 48l1 10" stroke="#f5eed9" stroke-linecap="round" stroke-width="5.5"/><ellipse cx="12" cy="60" rx="5.5" ry="2.8" fill="#e8dcc8"/></g><g transform="translate(180 70)"><g transform="rotate(-4)"><path d="M2-58c24 3 33 33 31 63S22 56 2 61c-21-5-30-24-31-55s7-61 31-64z" fill="#e0d4b8"/><path d="M0-60c24 3 33 33 31 63S20 54 0 59c-21-5-30-24-31-55s7-59 31-62z" fill="#f5eed9"/><path d="M-7-48C7-46 14-22 12 0 10 17 5 30-3.5 36c-8.5-6-14-23-14-41 0-22 3.5-41 10.5-43z" fill="#faf6eb" opacity=".5"/><path d="M0-48Q2.5 0 0 48" fill="none" stroke="#e0d5be" stroke-linecap="round" opacity=".5"/></g><ellipse cx="-10" cy="-10" rx="4" ry="5" fill="#3d3529"/><ellipse cx="-8.5" cy="-11.5" rx="1.6" ry="2" fill="#fff"/><ellipse cx="12" cy="-10" rx="4" ry="5" fill="#3d3529"/><ellipse cx="13.5" cy="-11.5" rx="1.6" ry="2" fill="#fff"/><path d="M-8 6Q2 17 12 6" fill="none" stroke="#3d3529" stroke-linecap="round" stroke-width="2.2"/><ellipse cx="-16" cy="3" rx="6" ry="4" fill="#f0b8a8" opacity=".45"/><ellipse cx="18" cy="3" rx="6" ry="4" fill="#f0b8a8" opacity=".45"/><path d="M-20 38q20 4 40 0v8q-20 4-40 0z" fill="#e8572a"/><path d="M-20 46q-1 12 3 15 8 2 17-2V46q-10 3-20 0zm40 0q1 12-3 15-8 2-17-2V46q10 3 20 0z" fill="#e8572a"/><path stroke="#c44420" stroke-width=".7" d="M0 42v18"/><path d="M-20 41q20 4 40 0" fill="none" stroke="#c44420" stroke-width=".8"/><path d="M-3 39l-2.5 3M0 39l2.5 3" stroke="#fff" stroke-width=".7" stroke-linecap="round"/><g transform="translate(-10 50)"><circle cy="-2" r="1.5" fill="#f5c542" opacity=".8"/><circle cx="1.8" r="1.5" fill="#f5c542" opacity=".8"/><circle cx="1" cy="1.5" r="1.5" fill="#f5c542" opacity=".8"/><circle cx="-1" cy="1.5" r="1.5" fill="#f5c542" opacity=".8"/><circle cx="-1.8" r="1.5" fill="#f5c542" opacity=".8"/><circle r="1" fill="#fff" opacity=".7"/></g><g transform="translate(12 48)"><circle cy="-1.5" r="1.3" fill="#7ecbf5" opacity=".8"/><circle cx="1.5" r="1.3" fill="#7ecbf5" opacity=".8"/><circle cx="1" cy="1.3" r="1.3" fill="#7ecbf5" opacity=".8"/><circle cx="-1" cy="1.3" r="1.3" fill="#7ecbf5" opacity=".8"/><circle cx="-1.5" r="1.3" fill="#7ecbf5" opacity=".8"/><circle r=".9" fill="#fff" opacity=".7"/></g><path d="M-8 54q-2 1.5-1 4" fill="none" stroke="#2d8f4e" stroke-width=".8" stroke-linecap="round" opacity=".6"/><g><path d="M-28 15Q-42 3-50-5" fill="none" stroke="#f5eed9" stroke-linecap="round" stroke-width="5.5"/><g transform="rotate(-15 -52.585 193.99)"><circle r="4.5" fill="#f5eed9"/><path d="M-2.5-2.5l-7-5" stroke="#f5eed9" stroke-linecap="round" stroke-width="3.5"/><circle cx="-9.5" cy="-7.5" r="2" fill="#f5eed9"/><path d="M2.5 2.5l5 8" stroke="#f5eed9" stroke-linecap="round" stroke-width="3"/><circle cx="7.5" cy="10.5" r="1.8" fill="#f5eed9"/><path d="M-1 3q2.5 1.5 4 0" stroke="#e0d4b8" fill="none" stroke-linecap="round"/><path d="M.5 4q2 1.5 3 0" stroke="#e0d4b8" stroke-width=".8" fill="none" stroke-linecap="round"/></g></g><g><path d="M28 15Q40 7 46-1" fill="none" stroke="#f5eed9" stroke-linecap="round" stroke-width="5.5"/><circle cx="47" cy="-2" r="3.5" fill="#f5eed9"/><g transform="rotate(12 158.201 223.86)"><path d="M-5 7c-1.5 0-3 1.5-3 4v16c0 2.5 1.5 4 4 4h8c2.5 0 4-1.5 4-4V11c0-2.5-1.5-4-3-4z" fill="#d42027"/><rect x="-3" y="13" width="10" height="11" rx="1" fill="#f5f0e0"/><rect x="-1.5" y="14.5" width="7" height="2.5" rx=".4" fill="#d42027"/><rect x="-.5" y="18" width="5.5" height="1.2" rx=".4" fill="#1a1a1a" opacity=".6"/><rect x=".5" y="20" width="4" height=".8" rx=".3" fill="#1a1a1a" opacity=".4"/><path d="M-.5 7V2c0-1 .8-1.5 2-1.5s2 .5 2 1.5v5" fill="#d42027"/><ellipse cx="2" cy="-.5" rx="3.2" ry="1.6" fill="#b01820"/><rect x=".5" y="-3.5" width="2.5" height="2.5" rx=".8" fill="#1a1a1a"/><circle cx="2" cy="-4" r="1" fill="#333"/></g></g><path d="M-10 61l-2 11" stroke="#f5eed9" stroke-linecap="round" stroke-width="6"/><ellipse cx="-13" cy="74" rx="6" ry="3" fill="#e8dcc8"/><path d="M12 61l2 11" stroke="#f5eed9" stroke-linecap="round" stroke-width="6"/><ellipse cx="15" cy="74" rx="6" ry="3" fill="#e8dcc8"/></g><g transform="translate(288 75)"><g transform="rotate(-5)"><path d="M1.5-50c21 2 29 29 27 55S19.5 48 0 53c-18-5-26-21-27-48s6-53 27-55z" fill="#e0d4b8"/><path d="M0-52c21 2 29 29 27 55S18 44 0 49c-18-5-26-21-27-48s6-51 27-53z" fill="#f5eed9"/><path d="M-6-42C6-40 12-19 10.5 0 9 15 4.5 27-3 32c-7.5-5-12-20-12-36 0-19 3-36 9-38z" fill="#faf6eb" opacity=".5"/><path d="M0-42Q2 0 0 42" fill="none" stroke="#e0d5be" stroke-linecap="round" opacity=".5"/></g><ellipse cx="-9" cy="-7" rx="3.2" ry="4" fill="#3d3529"/><ellipse cx="-10.5" cy="-8.5" rx="1.3" ry="1.6" fill="#fff"/><ellipse cx="8" cy="-7" rx="3.2" ry="4" fill="#3d3529"/><ellipse cx="6.5" cy="-8.5" rx="1.3" ry="1.6" fill="#fff"/><path d="M-12.5-10l-2-3m19 3l2-3" stroke="#3d3529" stroke-linecap="round"/><path d="M-5 6q7.5 7 15 0" fill="none" stroke="#3d3529" stroke-linecap="round" stroke-width="1.8"/><ellipse cx="-14" cy="4" rx="5" ry="3.2" fill="#f0b8a8" opacity=".5"/><ellipse cx="13" cy="4" rx="5" ry="3.2" fill="#f0b8a8" opacity=".5"/><path d="M-22 12q-8-2-12 4" fill="none" stroke="#f5eed9" stroke-linecap="round" stroke-width="4.5"/><circle cx="-35" cy="17" r="3" fill="#f5eed9"/><path d="M22 12Q32 2 36-4" fill="none" stroke="#f5eed9" stroke-linecap="round" stroke-width="4.5"/><g transform="translate(37 -5)"><circle r="3.5" fill="#f5eed9"/><path d="M-1.5-2l-3-8m6 8l3-8" stroke="#f5eed9" stroke-linecap="round" stroke-width="2.5"/><circle cx="-4.5" cy="-10" r="1.3" fill="#f5eed9"/><circle cx="4.5" cy="-10" r="1.3" fill="#f5eed9"/><path d="M-1 2.5q2 1.5 3.5 0" stroke="#e0d4b8" stroke-width=".8" fill="none" stroke-linecap="round"/></g><path d="M-8 48l-1 10" stroke="#f5eed9" stroke-linecap="round" stroke-width="5.5"/><ellipse cx="-10" cy="60" rx="5.5" ry="2.8" fill="#e8dcc8"/><path d="M10 48l1 10" stroke="#f5eed9" stroke-linecap="round" stroke-width="5.5"/><ellipse cx="12" cy="60" rx="5.5" ry="2.8" fill="#e8dcc8"/></g></svg>