<svg xmlns="http://www.w3.org/2000/svg" width="220" height="200" viewBox="0 0 280 240"><g transform="translate(140 195)"><ellipse rx="110" ry="12" fill="#f5c542" stroke="#d4a017" stroke-width="1.5"/><path d="M-90 0Q0-8 90 0" fill="none" stroke="#e8572a" stroke-width="2.5"/><path d="M-80 3Q0-3 80 3" fill="none" stroke="#2ab5e8" stroke-width="1.8"/><path d="M70 5l8 12-10 2z" fill="#d4a017"/></g><g opacity=".5"><path d="M20 200q15-8 30 0t30 0" fill="none" stroke="#7ecbf5" stroke-width="2" stroke-linecap="round"/><path d="M180 198q15-6 25 2t20 0" fill="none" stroke="#7ecbf5" stroke-width="1.5" stroke-linecap="round"/><circle cx="45" cy="205" r="2.5" fill="#b5e3fa" opacity=".6"/><circle cx="210" cy="203" r="2" fill="#b5e3fa" opacity=".5"/></g><g transform="rotate(-6 140 120)"><g transform="translate(140 98)"><path d="M2-66c28 3 38 38 36 73S26 64 2 70c-24-6-34-28-36-63s8-70 36-73z" fill="#e0d4b8"/><path d="M0-68c28 3 38 38 36 73S24 62 0 68c-24-6-34-28-36-63s8-70 36-73z" fill="#f5eed9"/><path d="M-8-55C8-52 16-25 14 0 12 20 6 35-4 42c-10-7-16-27-16-47 0-25 4-47 12-50z" fill="#faf6eb" opacity=".5"/><path d="M0-55Q3 0 0 55" fill="none" stroke="#e0d5be" stroke-width="1.2" stroke-linecap="round" opacity=".5"/></g><ellipse cx="128" cy="92" rx="4.5" ry="5.5" fill="#3d3529"/><ellipse cx="129.5" cy="90.5" rx="1.8" ry="2.2" fill="#fff"/><ellipse cx="152" cy="92" rx="4.5" ry="5.5" fill="#3d3529"/><ellipse cx="153.5" cy="90.5" rx="1.8" ry="2.2" fill="#fff"/><path d="M128 108q12 12 24 0" fill="none" stroke="#3d3529" stroke-linecap="round" stroke-width="2.5"/><ellipse cx="122" cy="106" rx="7" ry="4.5" fill="#f0b8a8" opacity=".45"/><ellipse cx="158" cy="106" rx="7" ry="4.5" fill="#f0b8a8" opacity=".45"/><path d="M108 115q-18-14-28-24" fill="none" stroke="#f5eed9" stroke-linecap="round" stroke-width="6"/><g transform="rotate(-15 373.213 -252.234)"><circle r="5.5" fill="#f5eed9"/><path d="M-3-3l-9-6" stroke="#f5eed9" stroke-linecap="round" stroke-width="4"/><circle cx="-12" cy="-9" r="2.2" fill="#f5eed9"/><path d="M3 3l6 10" stroke="#f5eed9" stroke-linecap="round" stroke-width="3.5"/><circle cx="9" cy="13" r="2" fill="#f5eed9"/><path d="M-1 4q3 2 5 0" stroke="#e0d4b8" stroke-width="1.2" fill="none" stroke-linecap="round"/><path d="M1 5q2 2 4 0" stroke="#e0d4b8" fill="none" stroke-linecap="round"/></g><path d="M172 115q14-10 22-20" fill="none" stroke="#f5eed9" stroke-linecap="round" stroke-width="6"/><circle cx="195" cy="94" r="4" fill="#f5eed9"/><g transform="rotate(12 -224.488 975.922)"><path d="M-6 8c-2 0-4 2-4 5v20c0 3 2 5 5 5H5c3 0 5-2 5-5V13c0-3-2-5-4-5z" fill="#d42027"/><rect x="-4" y="16" width="13" height="14" rx="1" fill="#f5f0e0"/><rect x="-2" y="18" width="9" height="3" rx=".5" fill="#d42027"/><rect x="-1" y="22" width="7" height="1.5" rx=".5" fill="#1a1a1a" opacity=".6"/><rect y="25" width="5" height="1" rx=".5" fill="#1a1a1a" opacity=".4"/><path d="M-1 8V2c0-1 1-2 2.5-2S4 1 4 2v6" fill="#d42027"/><ellipse cx="2.5" cy="-1" rx="4" ry="2" fill="#b01820"/><rect x="1" y="-4" width="3" height="3" rx="1" fill="#1a1a1a"/><circle cx="2.5" cy="-4.5" r="1.2" fill="#333"/></g><g><path d="M116 140q24 5 48 0v10q-24 5-48 0z" fill="#e8572a"/><path d="M116 150q-1 14 4 18 10 2 20-2v-16q-12 3-24 0zm48 0q1 14-4 18-10 2-20-2v-16q12 3 24 0z" fill="#e8572a"/><path stroke="#c44420" stroke-width=".8" d="M140 145v23"/><path d="M116 143q24 5 48 0" fill="none" stroke="#c44420"/><path d="M137 141l-3 4m6-4l3 4" stroke="#fff" stroke-width=".8" stroke-linecap="round"/><g transform="translate(125 153)"><circle cy="-2.5" r="1.8" fill="#f5c542" opacity=".8"/><circle cx="2.2" cy="-.5" r="1.8" fill="#f5c542" opacity=".8"/><circle cx="1.5" cy="2" r="1.8" fill="#f5c542" opacity=".8"/><circle cx="-1.5" cy="2" r="1.8" fill="#f5c542" opacity=".8"/><circle cx="-2.2" cy="-.5" r="1.8" fill="#f5c542" opacity=".8"/><circle r="1.2" fill="#fff" opacity=".7"/></g><g transform="translate(152 150)"><circle cy="-2" r="1.5" fill="#7ecbf5" opacity=".8"/><circle cx="1.8" cy="-.4" r="1.5" fill="#7ecbf5" opacity=".8"/><circle cx="1.2" cy="1.6" r="1.5" fill="#7ecbf5" opacity=".8"/><circle cx="-1.2" cy="1.6" r="1.5" fill="#7ecbf5" opacity=".8"/><circle cx="-1.8" cy="-.4" r="1.5" fill="#7ecbf5" opacity=".8"/><circle r="1" fill="#fff" opacity=".7"/></g><g transform="translate(148 160)"><circle cy="-2" r="1.3" fill="#f5c542" opacity=".7"/><circle cx="1.5" r="1.3" fill="#f5c542" opacity=".7"/><circle cx="1" cy="1.5" r="1.3" fill="#f5c542" opacity=".7"/><circle cx="-1" cy="1.5" r="1.3" fill="#f5c542" opacity=".7"/><circle cx="-1.5" r="1.3" fill="#f5c542" opacity=".7"/><circle r=".9" fill="#fff" opacity=".6"/></g><path d="M130 160q-3 2-1 5m26-10q2 3 0 5" fill="none" stroke="#2d8f4e" stroke-linecap="round" opacity=".6"/></g><g><path d="M126 168l-4 14" stroke="#f5eed9" stroke-linecap="round" stroke-width="7"/><ellipse cx="121" cy="185" rx="7" ry="3.5" fill="#e8dcc8"/><path d="M154 168l4 14" stroke="#f5eed9" stroke-linecap="round" stroke-width="7"/><ellipse cx="159" cy="185" rx="7" ry="3.5" fill="#e8dcc8"/></g></g></svg>